<svg width="1983" height="810" viewBox="0 0 1983 810" fill="none" xmlns="http://www.w3.org/2000/svg">
<path d="M0 0H1983V810H0V0Z" fill="#FFFEC4"/>
<path d="M0 0H1983V333.295C1939.13 316.108 1889.68 315.515 1852.56 333.653C1816.86 351.095 1800.92 392.094 1784.75 433.681C1772.25 465.806 1759.62 498.281 1737.65 520.52C1718.55 539.851 1692.88 547.632 1667.04 555.467C1647.37 561.432 1627.59 567.429 1610.53 578.58C1565.8 607.814 1523.7 640.579 1489.02 683.017C1483.67 689.557 1478.21 696.081 1472.72 702.634C1445.01 735.714 1416.68 769.541 1399.91 810H1362.1C1392.37 765.398 1413.27 718.68 1407.74 664.836C1400.02 589.827 1328.72 553.008 1256.19 515.56C1215.75 494.682 1174.94 473.608 1144.55 445.612C1111.22 414.899 1082.81 377.216 1054.56 339.74C1006.27 275.673 958.431 212.215 887.228 185.237C775.166 142.78 635.039 148.355 536.24 215.135C479.872 253.235 455.118 321.49 430.228 390.121C407.14 453.781 383.934 517.766 335.271 558.314C292.979 593.555 237.176 595.248 180.635 596.963C137.306 598.278 93.5439 599.605 55.0977 616.055C41.1699 622.014 26.9551 627.87 12.626 633.773C8.42578 635.504 4.21582 637.238 0 638.98V0Z" fill="#FFD6A5"/>
<rect width="1983" height="810" fill="white" fill-opacity="0.5"/>
</svg>
